<svg xmlns="http://www.w3.org/2000/svg" version="1.1" xmlns:xlink="http://www.w3.org/1999/xlink" xmlns:svgjs="http://svgjs.dev/svgjs" width="1500" height="1500" viewBox="0 0 1500 1500"><rect width="1500" height="1500" fill="#000000"></rect><g transform="matrix(0.6666666666666666,0,0,0.6666666666666666,249.39393939393943,536.1349655334261)"><svg viewBox="0 0 396 170" data-background-color="#ffffff" preserveAspectRatio="xMidYMid meet" height="643" width="1500" xmlns="http://www.w3.org/2000/svg" xmlns:xlink="http://www.w3.org/1999/xlink"><g id="tight-bounds" transform="matrix(1,0,0,1,0.2400000000000091,-0.18571727997456833)"><svg viewBox="0 0 395.52 170.37143455994914" height="170.37143455994914" width="395.52"><g><svg viewBox="0 0 466.6247026993615 200.99999999999997" height="170.37143455994914" width="395.52"><g><rect width="8.327060809195402" height="200.99999999999997" x="176.21808275862068" y="0" fill="#ffffff" opacity="1" stroke-width="0" stroke="transparent" fill-opacity="1" class="rect-yte-0" data-fill-palette-color="primary" rx="1%" id="yte-0" data-palette-color="#264f0b"></rect></g><g transform="matrix(1,0,0,1,206.3437320735632,0.4999999999999858)"><svg viewBox="0 0 260.28097062579826 200" height="200" width="260.28097062579826"><g id="textblocktransform"><svg viewBox="0 0 260.28097062579826 200" height="200" width="260.28097062579826" id="textblock"><g><svg viewBox="0 0 260.28097062579826 200" height="200" width="260.28097062579826"><g transform="matrix(1,0,0,1,0,0)"><svg width="260.28097062579826" viewBox="0 -35.5 101.9 75.39999999999999" height="200" data-palette-color="#264f0b"><svg></svg><svg></svg><g class="wordmark-text-0" data-fill-palette-color="primary" id="text-0"><path d="M8.5 0v-32.5h-8.5v-2.5h20.1v2.5h-8.8v32.5zM25.7-32.15c-0.433 0-0.823-0.177-1.17-0.53-0.353-0.347-0.53-0.737-0.53-1.17v0c0-0.433 0.167-0.817 0.5-1.15 0.333-0.333 0.733-0.5 1.2-0.5v0c0.467 0 0.86 0.16 1.18 0.48 0.313 0.313 0.47 0.703 0.47 1.17v0c0 0.467-0.167 0.867-0.5 1.2-0.333 0.333-0.717 0.5-1.15 0.5zM24.25 0v-25.05h2.8v25.05zM49.25-0.3c-2.067 0.533-4.067 0.8-6 0.8v0c-1.8 0-3.3-0.2-4.5-0.6v0c-1.967-0.667-3.39-1.693-4.27-3.08-0.887-1.38-1.33-3.32-1.33-5.82v0-6.4c0-3.3 0.867-5.81 2.6-7.53 1.733-1.713 3.967-2.57 6.7-2.57v0c2.167 0 4.4 0.533 6.7 1.6v0l-0.8 2.05c-1.9-0.767-3.733-1.15-5.5-1.15v0c-2.067 0-3.733 0.59-5 1.77-1.267 1.187-1.9 3.03-1.9 5.53v0 7.25c0 2.3 0.693 3.967 2.08 5 1.38 1.033 3.22 1.55 5.52 1.55v0c1.5 0 3.2-0.217 5.1-0.65v0zM67.05 0l-9.6-15.85-2.6 2.25v13.6h-2.8v-35h2.8v18.25l10-9.25 2 1.95-7.4 6.45c2.267 3.767 5.917 9.633 10.95 17.6v0zM87.7-1.75c-1.2 0.767-2.567 1.35-4.1 1.75-1.533 0.4-3.067 0.6-4.6 0.6v0c-2.467 0-4.423-0.61-5.87-1.83-1.453-1.213-2.18-3.037-2.18-5.47v0-10.25c0-2.7 0.843-4.8 2.53-6.3 1.68-1.5 3.903-2.25 6.67-2.25v0c2.767 0 4.927 0.74 6.48 2.22 1.547 1.487 2.32 3.547 2.32 6.18v0 6.5l-15.2 0.85v3.05c0 1.6 0.517 2.8 1.55 3.6 1.033 0.8 2.383 1.2 4.05 1.2v0c2.333 0 4.75-0.667 7.25-2v0zM86.15-17.45c0-2.067-0.65-3.527-1.95-4.38-1.3-0.847-2.667-1.27-4.1-1.27v0c-1.833 0-3.35 0.5-4.55 1.5-1.2 1-1.8 2.567-1.8 4.7v0 4.4l12.4-0.6zM98.4 0.65c-1.867-0.533-3.217-1.383-4.05-2.55-0.833-1.167-1.25-2.733-1.25-4.7v0-28.4h2.8v9.95h6l-1.2 2.65h-4.8v15.8c0 2.667 1.1 4.367 3.3 5.1v0z" fill="#ffffff" fill-rule="nonzero" stroke="none" stroke-width="1" stroke-linecap="butt" stroke-linejoin="miter" stroke-miterlimit="10" stroke-dasharray="" stroke-dashoffset="0" font-family="none" font-weight="none" font-size="none" text-anchor="none" style="mix-blend-mode: normal" data-fill-palette-color="primary" opacity="1"></path><path transform="translate(0,39.15)" d="M3.9 0v-35h16.7v2.6h-13.9v11.75h9.55l-0.95 2.75h-8.6v15.4h13.8v2.5zM44.35 0c-3.6 0.367-6.2 0.55-7.8 0.55v0c-3.5 0-6.283-0.65-8.35-1.95-2.067-1.3-3.1-3.65-3.1-7.05v0-4.15c0-3.3 1.15-5.517 3.45-6.65v0c1.1-0.567 2.5-0.85 4.2-0.85v0c1.567 0 3.15 0.257 4.75 0.77 1.6 0.52 2.95 1.197 4.05 2.03v0c0-1.833-0.533-3.293-1.6-4.38-1.067-1.08-3.117-1.62-6.15-1.62v0l0.15-2.15c3.2 0 5.56 0.507 7.08 1.52 1.513 1.02 2.447 2.23 2.8 3.63 0.347 1.4 0.52 3.2 0.52 5.4v0zM41.55-15.15c-1.367-0.633-2.827-1.183-4.38-1.65-1.547-0.467-2.97-0.7-4.27-0.7v0c-3.367 0-5.05 1.683-5.05 5.05v0 4.35c0 2.167 0.75 3.74 2.25 4.72 1.5 0.987 3.633 1.48 6.4 1.48v0c1.433 0 3.117-0.133 5.05-0.4v0zM50.6-6.35c0.2 1.5 0.95 2.623 2.25 3.37 1.3 0.753 2.75 1.13 4.35 1.13v0c1.5 0 2.867-0.343 4.1-1.03 1.233-0.68 1.85-1.787 1.85-3.32v0c0-1-0.29-1.827-0.87-2.48-0.587-0.647-1.313-1.17-2.18-1.57-0.867-0.4-2.033-0.833-3.5-1.3v0c-1.633-0.533-2.967-1.033-4-1.5-1.033-0.467-1.933-1.127-2.7-1.98-0.767-0.847-1.217-1.92-1.35-3.22v0l-0.05-0.6c0-1.1 0.31-2.177 0.93-3.23 0.613-1.047 1.563-1.903 2.85-2.57 1.28-0.667 2.887-1 4.82-1v0c1.067 0 2.01 0.107 2.83 0.32 0.813 0.22 1.453 0.447 1.92 0.68 0.467 0.233 0.75 0.383 0.85 0.45v0l-0.95 2.3c-0.1-0.067-0.34-0.2-0.72-0.4-0.387-0.2-0.93-0.4-1.63-0.6-0.7-0.2-1.467-0.3-2.3-0.3v0c-1.6 0-2.967 0.373-4.1 1.12-1.133 0.753-1.7 1.797-1.7 3.13v0c0 1.267 0.517 2.233 1.55 2.9 1.033 0.667 2.617 1.333 4.75 2v0c1.8 0.6 3.25 1.167 4.35 1.7 1.1 0.533 2.043 1.29 2.83 2.27 0.78 0.987 1.17 2.263 1.17 3.83v0c0 2-0.74 3.667-2.22 5-1.487 1.333-3.663 2-6.53 2v0c-1.9 0-3.54-0.327-4.92-0.98-1.387-0.647-2.437-1.503-3.15-2.57-0.72-1.067-1.113-2.25-1.18-3.55v0zM86.2-1.75c-1.2 0.767-2.567 1.35-4.1 1.75-1.533 0.4-3.067 0.6-4.6 0.6v0c-2.467 0-4.423-0.61-5.87-1.83-1.453-1.213-2.18-3.037-2.18-5.47v0-10.25c0-2.7 0.843-4.8 2.53-6.3 1.68-1.5 3.903-2.25 6.67-2.25v0c2.767 0 4.927 0.74 6.48 2.22 1.547 1.487 2.32 3.547 2.32 6.18v0 6.5l-15.2 0.85v3.05c0 1.6 0.517 2.8 1.55 3.6 1.033 0.8 2.383 1.2 4.05 1.2v0c2.333 0 4.75-0.667 7.25-2v0zM84.65-17.45c0-2.067-0.65-3.527-1.95-4.38-1.3-0.847-2.667-1.27-4.1-1.27v0c-1.833 0-3.35 0.5-4.55 1.5-1.2 1-1.8 2.567-1.8 4.7v0 4.4l12.4-0.6z" fill="#ffffff" fill-rule="nonzero" stroke="none" stroke-width="1" stroke-linecap="butt" stroke-linejoin="miter" stroke-miterlimit="10" stroke-dasharray="" stroke-dashoffset="0" font-family="none" font-weight="none" font-size="none" text-anchor="none" style="mix-blend-mode: normal" data-fill-palette-color="primary" opacity="1"></path></g></svg></g></svg></g></svg></g></svg></g><g transform="matrix(1,0,0,1,0,28.966296720723207)"><svg viewBox="0 0 154.41949425287356 143.06740655855356" height="143.06740655855356" width="154.41949425287356"><g><svg xmlns="http://www.w3.org/2000/svg" xml:space="preserve" viewBox="0.4 4.100000000000001 99.3 92" x="0" y="0" height="143.06740655855356" width="154.41949425287356" class="icon-icon-0" data-fill-palette-color="accent" id="icon-0"><path d="M65.2 67.4c0.6 0 1.1-0.5 1.1-1.1v-2.9c0-0.6-0.5-1.1-1.1-1.1h-2.4c-0.3-1.7-1-3.3-1.9-4.7l1.7-1.7c0.4-0.4 0.4-1.1 0-1.5l-2.1-2.1c-0.4-0.4-1.1-0.4-1.5 0L57.2 54c-1.4-0.9-3-1.6-4.7-1.9v-2.4c0-0.6-0.5-1.1-1.1-1.1h-2.9c-0.6 0-1.1 0.5-1.1 1.1v2.4c-1.7 0.3-3.3 1-4.7 1.9L41 52.3c-0.4-0.4-1.1-0.4-1.5 0l-2.1 2.1c-0.4 0.4-0.4 1.1 0 1.5l1.7 1.7c-0.9 1.4-1.6 3-1.9 4.7h-2.4c-0.6 0-1.1 0.5-1.1 1.1v2.9c0 0.6 0.5 1.1 1.1 1.1h2.4c0.3 1.7 1 3.3 1.9 4.7l-1.7 1.7c-0.4 0.4-0.4 1.1 0 1.5l2.1 2.1c0.4 0.4 1.1 0.4 1.5 0l1.7-1.7c1.4 0.9 3 1.6 4.7 1.9V80c0 0.6 0.5 1.1 1.1 1.1h2.9c0.6 0 1.1-0.5 1.1-1.1v-2.4c1.7-0.3 3.3-1 4.7-1.9l1.7 1.7c0.4 0.4 1.1 0.4 1.5 0l2.1-2.1c0.4-0.4 0.4-1.1 0-1.5l-1.7-1.7c0.9-1.4 1.6-3 1.9-4.7z m-10.7-3.1h-2.3v6.1c0 0.3-0.2 0.5-0.5 0.5h-3.4c-0.3 0-0.5-0.2-0.5-0.5v-6.1h-2.3c-0.2 0-0.4-0.3-0.2-0.5l4.5-5.4c0.1-0.2 0.4-0.2 0.6 0l4.5 5.4c0 0.3-0.1 0.5-0.4 0.5m13.1-23.9H32.4v-5c0-1 0.5-2 1.3-2.7C38.1 29 43 26.6 44 26.1c0.1-0.1 0.2-0.2 0.2-0.3v-3.3c-0.5-0.9-0.9-1.9-1-2.7-0.4 0-0.9-0.6-1.4-2.5-0.7-2.5 0-3 0.6-3-0.3-1.4-1.2-6.5 2.5-8.7 0 0-0.8-0.6-0.7-1.5 0 0 4.3 0.5 6.3 0.1 2.1-0.4 4.3 1.2 4.6 2.7 0 0 4.2 0 2.6 7.5 0.7 0 1.4 0.4 0.6 3-0.5 1.9-1 2.5-1.4 2.5-0.1 0.9-0.5 1.8-1 2.7v3.3c0 0.1 0.1 0.2 0.2 0.3 1 0.5 5.8 2.9 10.3 6.6 0.8 0.7 1.3 1.7 1.3 2.7v4.9z m30.8 47.9c0.8 0.7 1.3 1.7 1.3 2.7v5H64.4v-5c0-1 0.5-2 1.3-2.7 4.5-3.7 9.3-6.1 10.3-6.6 0.1-0.1 0.2-0.2 0.2-0.3v-3.3c-0.5-0.9-0.9-1.9-1-2.7-0.4 0-0.9-0.6-1.4-2.5-0.7-2.5 0-3 0.6-3-0.3-1.4-1.2-6.5 2.5-8.7 0 0-0.8-0.6-0.7-1.5 0 0 4.3 0.5 6.3 0.1 2.1-0.4 4.3 1.2 4.6 2.7 0 0 4.2 0 2.6 7.5 0.7 0 1.4 0.4 0.6 3-0.5 1.9-1 2.5-1.4 2.5-0.1 0.9-0.5 1.8-1 2.7v3.3c0 0.1 0.1 0.2 0.2 0.3 0.9 0.4 5.8 2.8 10.3 6.5M15.7 96H0.4v-5c0-1 0.5-2 1.3-2.7 4.5-3.7 9.3-6.1 10.3-6.6 0.1-0.1 0.2-0.2 0.2-0.3v-3.3c-0.5-0.9-0.9-1.9-1-2.7-0.4 0-0.9-0.6-1.4-2.5-0.7-2.5 0-3 0.6-3-0.3-1.4-1.2-6.5 2.5-8.7 0 0-0.8-0.6-0.7-1.5 0 0 4.3 0.5 6.3 0.1 2.1-0.4 4.3 1.2 4.6 2.7 0 0 4.2 0 2.6 7.5 0.7 0 1.4 0.4 0.6 3-0.5 1.9-1 2.5-1.4 2.5-0.1 0.9-0.5 1.8-1 2.7v3.3c0 0.1 0.1 0.2 0.2 0.3 1 0.5 5.8 2.9 10.3 6.6 0.8 0.7 1.3 1.7 1.3 2.7v5h-20z" fill="#ffffff" data-fill-palette-color="accent"></path></svg></g></svg></g></svg></g><defs></defs></svg><rect width="395.52" height="170.37143455994914" fill="none" stroke="none" visibility="hidden"></rect></g></svg></g></svg>